<svg width="32" height="32" viewBox="0 0 32 32" fill="none" xmlns="http://www.w3.org/2000/svg">
<g id="vuesax/linear/be">
<g id="be">
<path id="Vector" d="M2.66667 16H12C14.2667 16 16 17.7333 16 20C16 22.2667 14.2667 24 12 24H4C3.2 24 2.66667 23.4667 2.66667 22.6667V9.33333C2.66667 8.53333 3.2 8 4 8H10.6667C12.9333 8 14.6667 9.73333 14.6667 12C14.6667 14.2667 12.9333 16 10.6667 16H2.66667Z" stroke="white" stroke-width="1.5" stroke-miterlimit="10"/>
<path id="Vector_2" d="M18.6667 18.6668H29.3333C29.3333 15.7335 26.9333 13.3335 24 13.3335C21.0667 13.3335 18.6667 15.7335 18.6667 18.6668ZM18.6667 18.6668C18.6667 21.6002 21.0667 24.0002 24 24.0002H26.2667" stroke="white" stroke-width="1.5" stroke-miterlimit="10" stroke-linecap="round" stroke-linejoin="round"/>
<path id="Vector_3" d="M26 10H22" stroke="white" stroke-width="1.5" stroke-miterlimit="10" stroke-linecap="round" stroke-linejoin="round"/>
</g>
</g>
</svg>
