<svg width="28" height="28" viewBox="0 0 28 28" fill="none" xmlns="http://www.w3.org/2000/svg">
<g id="vuesax/linear/dribbble">
<g id="dribbble">
<path id="Vector" d="M21.5833 5.58838C18.55 10.8967 12.705 13.9417 6.615 13.3934L2.91667 13.055" stroke="white" stroke-width="1.5" stroke-miterlimit="10" stroke-linecap="round" stroke-linejoin="round"/>
<path id="Vector_2" d="M6.41667 22.5983C9.45 17.29 15.295 14.245 21.385 14.7933L25.0833 15.1317" stroke="white" stroke-width="1.5" stroke-miterlimit="10" stroke-linecap="round" stroke-linejoin="round"/>
<path id="Vector_3" d="M14 25.6668C20.4433 25.6668 25.6667 20.4435 25.6667 14.0002C25.6667 7.55684 20.4433 2.3335 14 2.3335C7.55668 2.3335 2.33333 7.55684 2.33333 14.0002C2.33333 20.4435 7.55668 25.6668 14 25.6668Z" stroke="white" stroke-width="1.5" stroke-miterlimit="10" stroke-linecap="round" stroke-linejoin="round"/>
<path id="Vector_4" d="M8.90167 3.5L12.6117 8.10833C15.0967 11.1883 16.8583 14.77 17.7917 18.6083L19.2033 24.43" stroke="white" stroke-width="1.5" stroke-miterlimit="10" stroke-linecap="round" stroke-linejoin="round"/>
</g>
</g>
</svg>
